<svg xmlns="http://www.w3.org/2000/svg" viewBox="0 0 100 100">

  <!-- BOTTOM BOOK -->
  <!-- Top face -->
  <polygon points="5,73 87,73 82,81 0,81" fill="#C84830"/>
  <!-- Pages (front edge) -->
  <polygon points="0,81 82,81 82,87 0,87" fill="#EDE8D0"/>
  <!-- Right cover edge -->
  <polygon points="87,73 82,81 82,87 87,79" fill="#8B3020"/>
  <!-- Gold border on top face -->
  <polygon points="9,74.5 83,74.5 78,79.5 4,79.5" fill="none" stroke="#D4A832" stroke-width="1.2"/>

  <!-- TOP BOOK -->
  <!-- Spine (left long edge strip) -->
  <polygon points="28,55 47,4 43,2.5 24,53.5" fill="#8B3020"/>
  <!-- Cover face -->
  <polygon points="28,55 58,68 77,17 47,4" fill="#C84830"/>
  <!-- Right edge -->
  <polygon points="58,68 77,17 81,15.5 62,66.5" fill="#8B3020"/>
  <!-- Gold border on cover face -->
  <polygon points="32.9,51.2 56.9,61.6 72.1,20.8 48.1,10.4" fill="none" stroke="#D4A832" stroke-width="1.2"/>

  <!-- Maple leaf — perspective-mapped to the cover plane -->
  <polygon points="
    54.5,30.7
    56.1,34.5
    57.3,36.2
    54.9,37.1
    55.5,38.8
    53.0,37.0
    51.4,41.3
    49.9,40.6
    51.5,36.3
    48.5,35.8
    50.1,34.9
    48.9,32.6
    50.9,32.3
  " fill="#D4A832"/>

</svg>
